<?xml version="1.0" encoding="UTF-8"?>
<svg xmlns="http://www.w3.org/2000/svg" xmlns:xlink="http://www.w3.org/1999/xlink" width="24px" height="24px" viewBox="0 0 24 24" version="1.1">
<g id="surface1">
<path d="M 12.4375 23.839844 C 11.410156 23.839844 10.371094 23.707031 9.351562 23.433594 C 6.292969 22.613281 3.738281 20.652344 2.15625 17.910156 C 0.574219 15.167969 0.152344 11.976562 0.972656 8.917969 C 1.789062 5.859375 3.753906 3.304688 6.492188 1.722656 C 8.757812 0.414062 11.328125 -0.101562 13.921875 0.230469 C 14.25 0.273438 14.519531 0.519531 14.59375 0.84375 C 14.664062 1.171875 14.523438 1.507812 14.238281 1.683594 C 10.566406 3.984375 9.386719 8.730469 11.554688 12.484375 C 13.722656 16.238281 18.421875 17.589844 22.25 15.558594 C 22.542969 15.402344 22.90625 15.449219 23.152344 15.671875 C 23.398438 15.898438 23.476562 16.253906 23.347656 16.5625 C 22.339844 18.972656 20.609375 20.941406 18.34375 22.25 C 16.519531 23.300781 14.492188 23.839844 12.4375 23.839844 Z M 11.65625 1.738281 C 10.125 1.851562 8.640625 2.304688 7.285156 3.089844 C 4.90625 4.460938 3.207031 6.675781 2.5 9.328125 C 1.789062 11.976562 2.152344 14.746094 3.523438 17.121094 C 4.894531 19.496094 7.109375 21.195312 9.761719 21.90625 C 12.410156 22.617188 15.179688 22.25 17.554688 20.878906 C 18.914062 20.09375 20.050781 19.039062 20.910156 17.769531 C 16.8125 18.847656 12.398438 17.105469 10.1875 13.273438 C 7.972656 9.441406 8.675781 4.746094 11.65625 1.738281 Z M 11.65625 1.738281 "/>
</g>
</svg>
