<?xml version="1.0" encoding="UTF-8"?>
<svg xmlns="http://www.w3.org/2000/svg" xmlns:xlink="http://www.w3.org/1999/xlink" width="24px" height="24px" viewBox="0 0 24 24" version="1.1">
<g id="surface1">
<path d="M 23.3125 12.511719 L 20.644531 12.511719 C 20.355469 12.511719 20.117188 12.277344 20.117188 11.988281 C 20.117188 11.695312 20.355469 11.460938 20.644531 11.460938 L 23.3125 11.460938 C 23.605469 11.460938 23.839844 11.695312 23.839844 11.988281 C 23.839844 12.277344 23.605469 12.511719 23.3125 12.511719 Z M 23.3125 12.511719 "/>
<path d="M 3.328125 12.511719 L 0.660156 12.511719 C 0.367188 12.511719 0.132812 12.277344 0.132812 11.988281 C 0.132812 11.695312 0.367188 11.460938 0.660156 11.460938 L 3.328125 11.460938 C 3.621094 11.460938 3.855469 11.695312 3.855469 11.988281 C 3.855469 12.277344 3.621094 12.511719 3.328125 12.511719 Z M 3.328125 12.511719 "/>
<path d="M 11.988281 3.855469 C 11.695312 3.855469 11.460938 3.621094 11.460938 3.328125 L 11.460938 0.660156 C 11.460938 0.367188 11.695312 0.132812 11.988281 0.132812 C 12.277344 0.132812 12.511719 0.367188 12.511719 0.660156 L 12.511719 3.328125 C 12.511719 3.621094 12.277344 3.855469 11.988281 3.855469 Z M 11.988281 3.855469 "/>
<path d="M 11.988281 23.839844 C 11.695312 23.839844 11.460938 23.605469 11.460938 23.3125 L 11.460938 20.644531 C 11.460938 20.355469 11.695312 20.117188 11.988281 20.117188 C 12.277344 20.117188 12.511719 20.355469 12.511719 20.644531 L 12.511719 23.3125 C 12.511719 23.605469 12.277344 23.839844 11.988281 23.839844 Z M 11.988281 23.839844 "/>
<path d="M 19.996094 20.523438 C 19.863281 20.523438 19.726562 20.472656 19.625 20.367188 L 17.734375 18.480469 C 17.53125 18.273438 17.53125 17.941406 17.734375 17.734375 C 17.941406 17.53125 18.273438 17.53125 18.480469 17.734375 L 20.367188 19.625 C 20.574219 19.828125 20.574219 20.164062 20.367188 20.367188 C 20.265625 20.472656 20.132812 20.523438 19.996094 20.523438 Z M 19.996094 20.523438 "/>
<path d="M 5.863281 6.390625 C 5.730469 6.390625 5.59375 6.339844 5.492188 6.238281 L 3.605469 4.347656 C 3.398438 4.144531 3.398438 3.808594 3.605469 3.605469 C 3.808594 3.398438 4.144531 3.398438 4.347656 3.605469 L 6.238281 5.492188 C 6.441406 5.699219 6.441406 6.03125 6.238281 6.238281 C 6.132812 6.339844 6 6.390625 5.863281 6.390625 Z M 5.863281 6.390625 "/>
<path d="M 18.109375 6.390625 C 17.972656 6.390625 17.839844 6.339844 17.734375 6.238281 C 17.53125 6.03125 17.53125 5.699219 17.734375 5.492188 L 19.625 3.605469 C 19.828125 3.398438 20.164062 3.398438 20.367188 3.605469 C 20.574219 3.808594 20.574219 4.144531 20.367188 4.347656 L 18.480469 6.238281 C 18.378906 6.339844 18.242188 6.390625 18.109375 6.390625 Z M 18.109375 6.390625 "/>
<path d="M 3.976562 20.523438 C 3.839844 20.523438 3.707031 20.472656 3.605469 20.367188 C 3.398438 20.164062 3.398438 19.828125 3.605469 19.625 L 5.492188 17.734375 C 5.695312 17.53125 6.03125 17.53125 6.238281 17.734375 C 6.441406 17.941406 6.441406 18.273438 6.238281 18.480469 L 4.347656 20.367188 C 4.246094 20.472656 4.113281 20.523438 3.976562 20.523438 Z M 3.976562 20.523438 "/>
<path d="M 11.988281 17.527344 C 8.929688 17.527344 6.445312 15.042969 6.445312 11.988281 C 6.445312 8.929688 8.929688 6.445312 11.988281 6.445312 C 15.042969 6.445312 17.527344 8.929688 17.527344 11.988281 C 17.527344 15.042969 15.042969 17.527344 11.988281 17.527344 Z M 11.988281 7.5 C 9.511719 7.5 7.5 9.511719 7.5 11.988281 C 7.5 14.460938 9.511719 16.472656 11.988281 16.472656 C 14.460938 16.472656 16.472656 14.460938 16.472656 11.988281 C 16.472656 9.511719 14.460938 7.5 11.988281 7.5 Z M 11.988281 7.5 "/>
</g>
</svg>
